/* XPM */
static char * wmstickynotes_xpm[] = {
"48 48 33 1",
" 	c None",
".	c #000000",
"+	c #0B0D00",
"@	c #0B0C00",
"#	c #F5FF00",
"$	c #E5FF00",
"%	c #D6EF00",
"&	c #E6FF00",
"*	c #D7F000",
"=	c #0A0B00",
"-	c #DCF600",
";	c #CEE600",
">	c #CDE500",
",	c #CDE600",
"'	c #CFE700",
")	c #CCE400",
"!	c #CEE500",
"~	c #CEE700",
"{	c #CFE600",
"]	c #CBE400",
"^	c #DBF400",
"/	c #030400",
"(	c #4F5800",
"_	c #4D5700",
":	c #4D5600",
"<	c #070800",
"[	c #819000",
"}	c #7A8900",
"|	c #040400",
"1	c #060600",
"2	c #060700",
"3	c #040500",
"4	c #030300",
".+@@@@@@@@@@@@@@@@@@@@@@@@@@@@@@@@@@@@@@@@@@@@+.",
"+#$$$$$$$$$$$$$$$$$$$$$$$$$$$$$$$$$$$$$$$$$$$$#+",
"@$%%%%%%%%%%%%%%%%%%%%%%%%%%%%%%%%%%%%%%%%%%%%$@",
"@$%%%%%%%%%%%%%%%%%%%%%%%%%%%%%%%%%%%%%%%%%%%%$@",
"@$%%%%%%%%%%%%%%%%%%%%%%%%%%%%%%%%%%%%%%%%%%%%$@",
"@$%%%%%%%%%%%%%%%%%%%%%%%%%%%%%%%%%%%%%%%%%%%%$@",
"@$%%%%%%%%%%%%%%%%%%%%%%%%%%%%%%%%%%%%%%%%%%%%$@",
"@$%%%%%%%%%%%%%%%%%%%%%%%%%%%%%%%%%%%%%%%%%%%%$@",
"@$%%%%%%%%%%%%%%%%%%%%%%%%%%%%%%%%%%%%%%%%%%%%$@",
"@$%%%%%%%%%%%%%%%%%%%%%%%%%%%%%%%%%%%%%%%%%%%%$@",
"@$%%%%%%%%%%%%%%%%%%%%%%%%%%%%%%%%%%%%%%%%%%%%$@",
"@$%%%%%%%%%%%%%%%%%%%%%%%%%%%%%%%%%%%%%%%%%%%%$@",
"@$%%%%%%%%%%%%%%%%%%%%%%%%%%%%%%%%%%%%%%%%%%%%$@",
"@$%%%%%%%%%%%%%%%%%%%%%%%%%%%%%%%%%%%%%%%%%%%%$@",
"@$%%%%%%%%%%%%%%%%%%%%%%%%%%%%%%%%%%%%%%%%%%%%$@",
"@$%%%%%%%%%%%%%%%%%%%%%%%%%%%%%%%%%%%%%%%%%%%%$@",
"@$%%%%%%%%%%%%%%%%%%%%%%%%%%%%%%%%%%%%%%%%%%%%$@",
"@$%%%%%%%%%%%%%%%%%%%%%%%%%%%%%%%%%%%%%%%%%%%%$@",
"@$%%%%%%%%%%%%%%%%%%%%%%%%%%%%%%%%%%%%%%%%%%%%$@",
"@$%%%%%%%%%%%%%%%%%%%%%%%%%%%%%%%%%%%%%%%%%%%%$@",
"@$%%%%%%%%%%%%%%%%%%%%%%%%%%%%%%%%%%%%%%%%%%%%$@",
"@$%%%%%%%%%%%%%%%%%%%%%%%%%%%%%%%%%%%%%%%%%%%%$@",
"@$%%%%%%%%%%%%%%%%%%%%%%%%%%%%%%%%%%%%%%%%%%%%$@",
"@$%%%%%%%%%%%%%%%%%%%%%%%%%%%%%%%%%%%%%%%%%%%%$@",
"@$%%%%%%%%%%%%%%%%%%%%%%%%%%%%%%%%%%%%%%%%%%%%$@",
"@$%%%%%%%%%%%%%%%%%%%%%%%%%%%%%%%%%%%%%%%%%%%%$@",
"@$%%%%%%%%%%%%%%%%%%%%%%%%%%%%%%%%%%%%%%%%%%%%$@",
"@$%%%%%%%%%%%%%%%%%%%%%%%%%%%%%%%%%%%%%%%%%%%%$@",
"@$%%%%%%%%%%%%%%%%%%%%%%%%%%%%%%%%%%%%%%%%%%%%$@",
"@$%%%%%%%%%%%%%%%%%%%%%%%%%%%%%%%%%%%%%%%%%%%%$@",
"@$%%%%%%%%%%%%%%%%%%%%%%%%%%%%%%%%%%%%%%%%%%%%$@",
"@$%%%%%%%%%%%%%%%%%%%%%%%%%%%%%%%%%%%%%%%%%%%%$@",
"@$%%%%%%%%%%%%%%%%%%%%%%%%%%%%%%%%%%%%%%%%%%%%$@",
"@$%%%%%%%%%%%%%%%%%%%%%%%%%%%%%%%%%%%%%%%%%%%%$@",
"@$%%%%%%%%%%%%%%%%%%%%%%%%%%%%%%%%%%%%%%%%%%%%$@",
"@$%%%%%%%%%%%%%%%%%%%%%%%%%%%%%%%%%%%%%%%%%%%%$@",
"@$%%%%%%%%%%%%%%%%%%%%%%%%%%%%%%%%%%%%%%%%%%%%$@",
"@$%%%%%%%%%%%%%%%%%%%%%%%%%%%%%%%%%%%%%%%%%%%%$@",
"@$%%%%%%%%%%%%%%%%%%%%%%%%%%%%%%%%%%%%%%%%%%%%$@",
"@&********************************************&@",
"=-;>;,')!,;;!,;~){]',;>;,~>>~,;!,,']{)~;;>;;,!^=",
"/(_:::::::::::::::::::::::::::::::::::::::::::(/",
"<[}}}}}}}}}}}}}}}}}}}}}}}}}}}}}}}}}}}}}}}}}}}}[<",
"|(____________________________________________(|",
"1[}}}}}}}}}}}}}}}}}}}}}}}}}}}}}}}}}}}}}}}}}}}}[2",
"1(____________________________________________(2",
"3[}}}}}}}}}}}}}}}}}}}}}}}}}}}}}}}}}}}}}}}}}}}}[3",
"./4444444444444444444444444444444444444444444//."};
